<?xml version="1.0" encoding="utf-8"?>
<!-- Generator: Adobe Illustrator 19.2.1, SVG Export Plug-In . SVG Version: 6.00 Build 0)  -->
<svg version="1.1" id="Calque_1" xmlns="http://www.w3.org/2000/svg" xmlns:xlink="http://www.w3.org/1999/xlink" x="0px" y="0px"
	 viewBox="0 0 29 28.8" style="enable-background:new 0 0 29 28.8;" xml:space="preserve">
<style type="text/css">
	.st0{fill-rule:evenodd;clip-rule:evenodd;}
</style>
<path class="st0" d="M14.5,28.8C6.5,28.8,0,22.4,0,14.4C0,6.4,6.5,0,14.5,0C22.5,0,29,6.4,29,14.4C29,22.4,22.5,28.8,14.5,28.8z
	 M14.5,2.7C8,2.7,2.7,7.9,2.7,14.4c0,6.5,5.3,11.7,11.8,11.7c6.5,0,11.8-5.2,11.8-11.7C26.2,7.9,21,2.7,14.5,2.7z M13.1,20.3
	L13.1,20.3c-0.2,0.2-0.6,0.4-0.9,0.4c-0.7,0-1.4-0.6-1.4-1.4c0-0.4,0.2-0.7,0.4-1l0,0l4.3-4l-4.3-4l0,0c-0.3-0.2-0.4-0.6-0.4-1
	c0-0.7,0.6-1.3,1.4-1.3c0.4,0,0.7,0.1,0.9,0.4l0,0l5.4,4.9c0.3,0.3,0.4,0.6,0.4,1c0,0.4-0.2,0.7-0.4,1L13.1,20.3z"/>
</svg>
