<?xml version="1.0" encoding="utf-8"?>
<!-- Generator: Adobe Illustrator 19.2.1, SVG Export Plug-In . SVG Version: 6.00 Build 0)  -->
<svg version="1.1" id="Calque_1" xmlns="http://www.w3.org/2000/svg" xmlns:xlink="http://www.w3.org/1999/xlink" x="0px" y="0px"
	 viewBox="0 0 47.2 40.1" style="enable-background:new 0 0 47.2 40.1;" xml:space="preserve">
<style type="text/css">
	.st0{fill:none;stroke:#000000;stroke-miterlimit:10;}
</style>
<path class="st0" d="M23.4,19.6"/>
<path d="M2.7,5.6h41.7c1.5,0,2.7-1.3,2.7-2.8C47.2,1.3,46,0,44.4,0H2.7C1.2,0,0,1.3,0,2.8C0,4.4,1.2,5.6,2.7,5.6z M44.4,17.2H2.7
	c-1.5,0-2.7,1.3-2.7,2.8c0,1.6,1.2,2.8,2.7,2.8h41.7c1.5,0,2.7-1.3,2.7-2.8C47.2,18.5,46,17.2,44.4,17.2z M44.4,34.5H2.7
	c-1.5,0-2.7,1.3-2.7,2.8c0,1.6,1.2,2.8,2.7,2.8h41.7c1.5,0,2.7-1.3,2.7-2.8C47.2,35.8,46,34.5,44.4,34.5z"/>
</svg>
