<?xml version="1.0" encoding="utf-8"?>
<!-- Generator: Adobe Illustrator 19.2.1, SVG Export Plug-In . SVG Version: 6.00 Build 0)  -->
<svg version="1.1" id="Layer_1" xmlns="http://www.w3.org/2000/svg" xmlns:xlink="http://www.w3.org/1999/xlink" x="0px" y="0px"
	 viewBox="721.7 749.6 40.5 39.7" style="enable-background:new 721.7 749.6 40.5 39.7;" xml:space="preserve">
<style type="text/css">
	.st0{fill:#262626;}
</style>
<g>
	<polygon class="st0" points="754.2,763.6 756.9,763.6 756.9,758.2 762.2,758.2 762.2,755.5 756.9,755.5 756.9,750.2 754.2,750.2 
		754.2,755.5 748.8,755.5 748.8,758.2 754.2,758.2 	"/>
	<path class="st0" d="M734.1,789.4c9.3,0,12.9-4.9,12.9-8.9c0-3.3-1.2-5.4-4.9-8.2c-3.8-2.7-4.7-4.3-1.1-7.1c2-1.6,3.4-3.7,3.4-6.2
		c0-2.8-1.1-5.3-3.3-6.6h3.1l2.6-2.7c0,0-9.8,0-11.6,0c-7.3,0-10.8,4.4-10.8,9.2c0,4.9,3.4,8.8,9.9,8.8c-1,2.1-0.6,4,1.1,5.3
		c-11.2,0-13.6,4.9-13.6,8.7C721.7,786.4,727.3,789.4,734.1,789.4z M728.7,758.7c-0.5-4.1,1.6-7.3,4.7-7.2c3.1,0.1,5.8,3.5,6.4,7.6
		c0.5,4.1-1.3,6.8-4.4,6.7C732.2,765.7,729.3,762.8,728.7,758.7z M734.7,774.2c5.2,0,8.3,3.2,8.3,6.6c0,3.6-2.9,6.3-8.9,6.3
		c-4.7,0-8.1-3-8.1-6.5C726.1,777.2,730.1,774.2,734.7,774.2z"/>
</g>
</svg>
