<?xml version="1.0" encoding="utf-8"?>
<!-- Generator: Adobe Illustrator 19.2.1, SVG Export Plug-In . SVG Version: 6.00 Build 0)  -->
<svg version="1.1" id="Calque_2" xmlns="http://www.w3.org/2000/svg" xmlns:xlink="http://www.w3.org/1999/xlink" x="0px" y="0px"
	 viewBox="0 0 12.7 12.7" style="enable-background:new 0 0 12.7 12.7;" xml:space="preserve">
<g>
	<path d="M12.7,5.1H9.1c0,0,0.4,2-0.6,3.1c-0.8,0.8-3,1.4-4.3,0C3,6.9,3.7,5.2,3.7,5.2H0c0,0,0,3,0,4.9c0,1.9,2.2,2.6,2.7,2.6
		c0.5,0,4.9,0,7.2,0c2.3,0,2.7-2.4,2.7-2.6S12.7,5.1,12.7,5.1z"/>
	<path d="M6.4,3.2c1.5,0,2.1,0.9,2.1,0.9h4.1c0,0,0,0,0-1.3c0-2.1-2-2.8-2.7-2.8H3.4v3.2l-0.6,0l0-3.2C2.6,0,2.1,0.3,2.1,0.3v3H1.3
		V0.7C0.5,1.1,0.1,2.8,0.1,2.8v1.4h4.3C4.3,4.1,4.9,3.2,6.4,3.2z M9.2,2.1c0,0,0-0.5,0.5-0.5c0.4,0,0.4,0,0.9,0
		C11,1.6,11,2.1,11,2.1v1c0,0,0,0.3-0.4,0.3c-0.3,0-0.6,0-1,0c-0.4,0-0.4-0.3-0.4-0.3V2.1z"/>
	<circle cx="6.3" cy="6.2" r="1.7"/>
</g>
</svg>
