<?xml version="1.0" encoding="utf-8"?>
<!-- Generator: Adobe Illustrator 19.2.1, SVG Export Plug-In . SVG Version: 6.00 Build 0)  -->
<svg version="1.1" id="Calque_1" xmlns="http://www.w3.org/2000/svg" xmlns:xlink="http://www.w3.org/1999/xlink" x="0px" y="0px"
	 viewBox="0 0 24 24" style="enable-background:new 0 0 24 24;" xml:space="preserve">
<style type="text/css">
	.st0{fill-rule:evenodd;clip-rule:evenodd;fill:#C99B38;}
</style>
<path class="st0" d="M23.6,11.7L11.7,23.6C11.4,23.9,11,24,10.6,24c-0.4,0-0.8-0.1-1.1-0.4l-9.1-9.1C0.2,14.2,0,13.8,0,13.4
	c0-0.4,0.2-0.8,0.4-1.1L12.3,0.4C12.6,0.2,13,0,13.4,0l9.1,0c0.4,0,0.8,0.2,1.1,0.4C23.8,0.7,24,1.1,24,1.5v9.1
	C24,11,23.8,11.4,23.6,11.7z M2.6,13.4l8.1,8.1l1.6-1.6l-8.1-8.1L2.6,13.4z M21.8,2.2l-8.1,0l-7.9,7.9l8.1,8.1l7.9-7.9V2.2z
	 M17.3,5.2c0.8,0,1.5,0.7,1.5,1.5c0,0.8-0.7,1.5-1.5,1.5s-1.5-0.7-1.5-1.5C15.8,5.9,16.4,5.2,17.3,5.2z"/>
</svg>
