<?xml version="1.0" encoding="utf-8"?>
<!-- Generator: Adobe Illustrator 19.2.1, SVG Export Plug-In . SVG Version: 6.00 Build 0)  -->
<svg version="1.1" id="Calque_1" xmlns="http://www.w3.org/2000/svg" xmlns:xlink="http://www.w3.org/1999/xlink" x="0px" y="0px"
	 viewBox="0 0 42.6 42.4" style="enable-background:new 0 0 42.6 42.4;" xml:space="preserve">
<style type="text/css">
	.st0{fill:#BCBEC0;stroke:#000000;stroke-miterlimit:10;}
</style>
<path class="st0" d="M26.5,0.5c-8.6,0-15.6,7-15.6,15.5c0,3.6,1.2,6.9,3.3,9.5L1.1,38.6C0.7,39,0.5,39.5,0.5,40c0,0.5,0.2,1,0.6,1.4
	c0.4,0.4,0.9,0.6,1.4,0.6c0.5,0,1-0.2,1.4-0.6L17,28.3c2.6,2,6,3.3,9.6,3.3c8.6,0,15.6-7,15.6-15.5C42.1,7.5,35.2,0.5,26.5,0.5z
	 M26.5,27.7c-6.5,0-11.7-5.2-11.7-11.7c0-6.4,5.3-11.7,11.7-11.7C33,4.4,38.2,9.6,38.2,16C38.2,22.5,33,27.7,26.5,27.7z"/>
</svg>
