<?xml version="1.0" encoding="utf-8"?>
<!-- Generator: Adobe Illustrator 19.2.1, SVG Export Plug-In . SVG Version: 6.00 Build 0)  -->
<svg version="1.1" id="Calque_1" xmlns="http://www.w3.org/2000/svg" xmlns:xlink="http://www.w3.org/1999/xlink" x="0px" y="0px"
	 viewBox="0 0 28 28" style="enable-background:new 0 0 28 28;" xml:space="preserve">
<style type="text/css">
	.st0{fill:#C99B38;}
</style>
<path class="st0" d="M17.5,0C11.7,0,7,4.7,7,10.5c0,2.4,0.8,4.7,2.2,6.4l-8.8,8.8C0.1,26,0,26.4,0,26.7c0,0.3,0.1,0.7,0.4,0.9
	C0.6,27.9,1,28,1.3,28c0.3,0,0.7-0.1,0.9-0.4l8.8-8.8c1.8,1.4,4,2.2,6.4,2.2C23.3,21,28,16.3,28,10.5C28,4.7,23.3,0,17.5,0z
	 M17.5,18.4c-4.3,0-7.9-3.5-7.9-7.9c0-4.3,3.5-7.9,7.9-7.9s7.9,3.5,7.9,7.9C25.4,14.8,21.8,18.4,17.5,18.4z"/>
</svg>
