<?xml version="1.0" encoding="utf-8"?>
<!-- Generator: Adobe Illustrator 19.2.1, SVG Export Plug-In . SVG Version: 6.00 Build 0)  -->
<svg version="1.1" id="Calque_1" xmlns="http://www.w3.org/2000/svg" xmlns:xlink="http://www.w3.org/1999/xlink" x="0px" y="0px"
	 viewBox="0 0 30 23" style="enable-background:new 0 0 30 23;" xml:space="preserve">
<style type="text/css">
	.st0{fill-rule:evenodd;clip-rule:evenodd;fill:none;stroke:#C99B38;stroke-miterlimit:10;}
	.st1{fill:none;stroke:#C99B38;stroke-miterlimit:10;}
</style>
<path class="st0" d="M1,7.1V3h20v16.2h-4.3v2.7l-4.3-2.7H11"/>
<g>
	<g>
		<path class="st1" d="M10,0v4.1l0,0H1.2C0.6,4.1,0,4.6,0,5.3v13.3c0,0.7,0.6,1.3,1.2,1.3h2.5v1.9C3.7,22.4,4.3,23,5,23h0.6l3.1-3.2
			h10c0.7,0,1.3-0.6,1.3-1.3v-2.3h1.4l4.3,2.7v-2.7H30V0H10z M18,18H8l-2,2v-2H2V6h9.6l6.4,7.8V18z"/>
	</g>
</g>
</svg>
