<?xml version="1.0" encoding="utf-8"?>
<!-- Generator: Adobe Illustrator 19.2.1, SVG Export Plug-In . SVG Version: 6.00 Build 0)  -->
<svg version="1.1" id="Calque_1" xmlns="http://www.w3.org/2000/svg" xmlns:xlink="http://www.w3.org/1999/xlink" x="0px" y="0px"
	 viewBox="0 0 20 28" style="enable-background:new 0 0 20 28;" xml:space="preserve">
<style type="text/css">
	.st0{fill-rule:evenodd;clip-rule:evenodd;fill:#C99B38;}
</style>
<path class="st0" d="M18.4,16.2L11.8,27c-0.4,0.6-1,1-1.8,1c-0.7,0-1.4-0.4-1.8-1L1.6,16.2c-1-1.6-1.6-3.6-1.6-5.7C0,4.7,4.5,0,10,0
	c5.5,0,10,4.7,10,10.5C20,12.6,19.4,14.6,18.4,16.2z M10,2.6c-4.1,0-7.5,3.5-7.5,7.9c0,1.5,0.4,3,1.2,4.3L10,25l6.3-10.2
	c0.8-1.3,1.2-2.7,1.2-4.3C17.5,6.2,14.1,2.6,10,2.6z M10,14.9c-2.3,0-4.2-2-4.2-4.4S7.7,6.1,10,6.1c2.3,0,4.2,2,4.2,4.4
	S12.3,14.9,10,14.9z M10,8.7c-0.9,0-1.7,0.8-1.7,1.7c0,1,0.7,1.8,1.7,1.8c0.9,0,1.7-0.8,1.7-1.8C11.7,9.5,10.9,8.7,10,8.7z"/>
</svg>
