<?xml version="1.0" encoding="utf-8"?>
<!-- Generator: Adobe Illustrator 19.2.1, SVG Export Plug-In . SVG Version: 6.00 Build 0)  -->
<svg version="1.1" id="Calque_1" xmlns="http://www.w3.org/2000/svg" xmlns:xlink="http://www.w3.org/1999/xlink" x="0px" y="0px"
	 viewBox="1069.8 566 32 26" style="enable-background:new 1069.8 566 32 26;" xml:space="preserve">
<style type="text/css">
	.st0{fill:#262626;}
</style>
<path class="st0" d="M1101.7,569.8c-0.7,1.2-1.7,2.2-3.1,3.2v0.6c0.1,5.1-2.5,11.8-8.5,15.6c-3,1.9-6.4,2.8-10.1,2.8
	c-3,0-5.9-0.7-8.5-2.1c-0.7-0.4-1.2-0.7-1.5-0.9c-0.2-0.1-0.3-0.3-0.3-0.5c0-0.3,0.3-0.5,0.5-0.5c0.2,0,0.4,0,0.8,0
	c0.3,0,0.6,0,0.8,0c2.3,0,4.5-0.6,6.4-1.8c-2.3-0.5-4.2-2.3-5-4.6c0-0.1,0-0.1,0-0.2c0-0.3,0.2-0.5,0.5-0.5c0.1,0,0.1,0,0.2,0
	c0.1,0,0.2,0,0.2,0c-2-1.2-3.3-3.4-3.3-5.8c0-0.3,0.3-0.6,0.7-0.6c0.1,0,0.3,0.1,0.6,0.2c0.3,0.1,0.5,0.2,0.5,0.2
	c-1-1.2-1.6-2.7-1.6-4.3c0-1.2,0.3-2.6,0.9-3.4c0.1-0.2,0.3-0.3,0.4-0.3c0.2,0,0.3,0.1,0.5,0.2c0.9,0.9,1.5,1.6,1.9,1.9
	c2.8,2.5,6.4,4,10.1,4.4c-0.1-0.2-0.1-0.5-0.1-0.8c0-3.8,3.1-6.8,6.9-6.8c1.9,0,3.5,0.6,4.8,1.9c1.1-0.2,2.3-0.7,3.6-1.4
	c0.1-0.1,0.2-0.1,0.3-0.1c0.3,0,0.5,0.2,0.5,0.5c0,0.5-0.8,1.9-1.3,2.5c0.2-0.1,0.8-0.3,1.2-0.5c0.2-0.1,0.4-0.1,0.4-0.1
	c0.3,0,0.5,0.3,0.5,0.5C1101.8,569.6,1101.7,569.7,1101.7,569.8z"/>
</svg>
