<?xml version="1.0" encoding="utf-8"?>
<!-- Generator: Adobe Illustrator 19.2.1, SVG Export Plug-In . SVG Version: 6.00 Build 0)  -->
<svg version="1.1" id="Layer_1" xmlns="http://www.w3.org/2000/svg" xmlns:xlink="http://www.w3.org/1999/xlink" x="0px" y="0px"
	 viewBox="720.6 842 39.5 45.6" style="enable-background:new 720.6 842 39.5 45.6;" xml:space="preserve">
<style type="text/css">
	.st0{fill:#262626;}
</style>
<g>
	<path class="st0" d="M746.1,859.8c0.7,0,1.7-0.4,2.8-1.6v1.4h2.4v-13h-2.4v9.9c-0.3,0.4-0.9,1-1.4,1c-0.5,0-0.6-0.4-0.6-0.9v-10
		h-2.4v10.9C744.4,858.7,744.8,859.8,746.1,859.8z"/>
	<path class="st0" d="M735.4,856.3c0,2.3,1.2,3.5,3.5,3.5c1.9,0,3.5-1.3,3.5-3.5V850c0-2-1.5-3.5-3.5-3.5c-2.1,0-3.5,1.4-3.5,3.5
		V856.3z M737.8,850.2c0-0.7,0.3-1.2,1-1.2c0.7,0,1.1,0.5,1.1,1.2v6c0,0.7-0.4,1.2-1,1.2c-0.7,0-1.1-0.5-1.1-1.2V850.2z"/>
	<polygon class="st0" points="729.6,859.6 732.3,859.6 732.3,852.4 735.5,842 732.7,842 731,849 729.1,842 726.4,842 729.6,852.4 	
		"/>
	<path class="st0" d="M754.6,862.5h-28.4c-3.1,0-5.5,2.5-5.5,5.5v14c0,3.1,2.5,5.5,5.5,5.5h28.4c3.1,0,5.5-2.5,5.5-5.5v-14
		C760.1,865,757.6,862.5,754.6,862.5z M729.9,883.4h-2.6v-14.3h-2.7v-2.4h7.9v2.4h-2.7V883.4z M739.1,883.4h-2.3v-1.4
		c-0.4,0.5-0.9,0.9-1.3,1.1c-1.2,0.7-2.9,0.7-2.9-1.8v-10.3h2.3v9.5c0,0.5,0.1,0.8,0.6,0.8c0.4,0,1.1-0.6,1.4-0.9v-9.4h2.3V883.4z
		 M747.9,880.9c0,1.5-0.6,2.7-2.1,2.7c-0.8,0-1.5-0.3-2.2-1.1v0.9h-2.3v-16.8h2.3v5.4c0.5-0.6,1.2-1.2,2-1.2c1.7,0,2.2,1.4,2.2,3.1
		V880.9z M756.4,877.5H752v2.3c0,0.9,0.1,1.7,1,1.7c1,0,1-0.7,1-1.7V879h2.4v0.9c0,2.4-1,3.8-3.4,3.8c-2.2,0-3.3-1.6-3.3-3.8v-5.5
		c0-2.1,1.4-3.6,3.5-3.6c2.2,0,3.3,1.4,3.3,3.6V877.5z"/>
	<path class="st0" d="M753.1,872.9c-0.9,0-1,0.6-1,1.4v1.2h2v-1.2C754.1,873.5,753.9,872.9,753.1,872.9z"/>
	<path class="st0" d="M744.1,873c-0.2,0.1-0.3,0.2-0.5,0.4v7.7c0.2,0.2,0.4,0.3,0.5,0.4c0.4,0.2,0.9,0.2,1.2-0.1
		c0.1-0.2,0.2-0.5,0.2-0.9v-6.4c0-0.4-0.1-0.7-0.2-0.9C745.1,872.8,744.5,872.8,744.1,873z"/>
</g>
</svg>
